<?xml version="1.0" standalone="no"?>
<!DOCTYPE svg PUBLIC "-//W3C//DTD SVG 1.1//EN" "http://www.w3.org/Graphics/SVG/1.1/DTD/svg11.dtd">
<svg width="102mm" height="50mm" viewBox="-68 -50 102 50" xmlns="http://www.w3.org/2000/svg" version="1.1">
<title>OpenSCAD Model</title>
<path d="
M -46,-6 L -30,-6 L -30,-0 L -8,-0 L -8,-50 L -68,-50
 L -68,-0 L -46,-0 z
M -38.7654,-23.1522 L -39.4142,-23.5858 L -39.8477,-24.2346 L -40,-25 L -39.8477,-25.7654 L -39.4142,-26.4142
 L -38.7654,-26.8477 L -38,-27 L -37.2346,-26.8477 L -36.5858,-26.4142 L -36.1522,-25.7654 L -36,-25
 L -36.1522,-24.2346 L -36.5858,-23.5858 L -37.2346,-23.1522 L -38,-23 z
M 22,-44 L 28,-44 L 28,-38 L 34,-38 L 34,-50 L 16,-50
 L 16,-6 L 8,-6 L 8,-20 L 0,-20 L 0,-0 L 22,-0
 z
" stroke="black" fill="lightgray" stroke-width="0.5"/>
</svg>
